{"title":"Kuruvi (2008) 720p BluRay Dual Audio [Hindi+Tamil] x264 AC3 5.1.","uid":12161413,"size":2357855432,"categoryP":"video","categoryS":"movies","magnet":"?xt=urn:btih:01928d4f4beac9902765eae56bef50e8a7d2a580&amp;dn=Kuruvi+%282008%29+720p+BluRay+Dual+Audio+%5BHindi%2BTamil%5D+x264+AC3+5.1.&amp;tr=udp%3A%2F%2Ftracker.openbittorrent.com%3A80&amp;tr=udp%3A%2F%2Fopen.demonii.com%3A1337&amp;tr=udp%3A%2F%2Ftracker.coppersurfer.tk%3A6969&amp;tr=udp%3A%2F%2Fexodus.desync.com%3A6969","seeders":20,"leechers":20,"uploader":"SS132203","files":2,"time":1437920708,"description":"Kuruvi (2008) 720p BluRay Dual Audio [Hindi+Tamil] x264 AC3 5.1...7St@r 1st on Net\n &lt;a href=&quot;\nhttp://imgsparrow.co/image/lr&quot; rel=&quot;nofollow&quot; target=&quot;_NEW&quot;&gt;\nhttp://imgsparrow.co/image/lr&lt;/a&gt;\n &lt;a href=&quot;\nhttp://imgsparrow.co/image/C6&quot; rel=&quot;nofollow&quot; target=&quot;_NEW&quot;&gt;\nhttp://imgsparrow.co/image/C6&lt;/a&gt;\n &lt;a href=&quot;\nhttp://imgsparrow.co/image/9b&quot; rel=&quot;nofollow&quot; target=&quot;_NEW&quot;&gt;\nhttp://imgsparrow.co/image/9b&lt;/a&gt;\n\nInfo : - \n\nThank 7St@r Not ME!\n\nGeneral\nComplete name : Kuruvi (2008)\nFormat : Matroska\nFormat version : Version 4 / Version 2\nFile size : 2.20 GiB\nDuration : 2h 49mn\nOverall bit rate : 1 850 Kbps\nMovie name : 7St@r by shanikhan786\n\nVideo\nID : 2\nFormat : AVC\nFormat/Info : Advanced Video Codec\nFormat profile : &lt;a class=&quot;__cf_email__&quot; href=&quot;/cdn-cgi/l/email-protection&quot; data-cfemail=&quot;e9a1808e81a9a5dac7d8&quot;&gt;[email&amp;#160;protected]&lt;/a&gt;&lt;script data-cfhash='f9e31' type=&quot;text/javascript&quot;&gt;\n/* &lt;![CDATA[ */!function(){try{var t=&quot;currentScript&quot;in document?document.currentScript:function(){for(var t=document.getElementsByTagName(&quot;script&quot;),e=t.length;e--;)if(t[e].getAttribute(&quot;data-cfhash&quot;))return t[e]}();if(t&amp;&amp;t.previousSibling){var e,r,n,i,c=t.previousSibling,a=c.getAttribute(&quot;data-cfemail&quot;);if(a){for(e=&quot;&quot;,r=parseInt(a.substr(0,2),16),n=2;a.length-n;n+=2)i=parseInt(a.substr(n,2),16)^r,e+=String.fromCharCode(i);e=document.createTextNode(e),c.parentNode.replaceChild(e,c)}t.parentNode.removeChild(t);}}catch(u){}}()/* ]]&gt; */&lt;/script&gt;\nFormat settings, CABAC : Yes\nFormat settings, ReFrames : 4 frames\nCodec ID : V_MPEG4/ISO/AVC\nDuration : 2h 49mn\nBit rate : 1 560 Kbps\nWidth : 1 280 pixels\nHeight : 544 pixels\nDisplay aspect ratio : 2.35:1\nFrame rate mode : Constant\nFrame rate : 24.000 fps\nColor space : YUV\nChroma subsampling : 4:2:0\nBit depth : 8 bits\nScan type : Progressive\nBits/(Pixel*Frame) : 0.093\nStream size : 1.81 GiB (82%)\nDefault : Yes\nForced : No\n\nAudio #1\nID : 1\nFormat : MPEG Audio\nFormat version : Version 1\nFormat profile : Layer 3\nMode : Joint stereo\nMode extension : MS Stereo\nCodec ID : A_MPEG/L3\nCodec ID/Hint : MP3\nDuration : 2h 49mn\nBit rate mode : Constant\nBit rate : 128 Kbps\nChannel(s) : 2 channels\nSampling rate : 44.1 KHz\nCompression mode : Lossy\nStream size : 156 MiB (7%)\nTitle : 7St@r by shanikhan786\nWriting library : LAME3.98.2\nLanguage : hai\nDefault : No\nForced : No\n\nAudio #2\nID : 3\nFormat : AC-3\nFormat/Info : Audio Coding 3\nMode extension : CM (complete main)\nFormat settings, Endianness : Big\nCodec ID : A_AC3\nDuration : 2h 49mn\nBit rate mode : Constant\nBit rate : 160 Kbps\nChannel(s) : 2 channels\nChannel positions : Front: L R\nSampling rate : 44.1 KHz\nBit depth : 16 bits\nCompression mode : Lossy\nStream size : 194 MiB (9%)\nTitle : 7St@r by shanikhan786\nLanguage : Tamil\nDefault : Yes\nForced : No\n\nScreens : - \n &lt;a href=&quot;\nhttp://imgsparrow.co/image/C8&quot; rel=&quot;nofollow&quot; target=&quot;_NEW&quot;&gt;\nhttp://imgsparrow.co/image/C8&lt;/a&gt; &lt;a href=&quot;\nhttp://imgsparrow.co/image/C9&quot; rel=&quot;nofollow&quot; target=&quot;_NEW&quot;&gt;\nhttp://imgsparrow.co/image/C9&lt;/a&gt; &lt;a href=&quot;\nhttp://imgsparrow.co/image/CL&quot; rel=&quot;nofollow&quot; target=&quot;_NEW&quot;&gt;\nhttp://imgsparrow.co/image/CL&lt;/a&gt; &lt;a href=&quot;\nhttp://imgsparrow.co/image/CN&quot; rel=&quot;nofollow&quot; target=&quot;_NEW&quot;&gt;\nhttp://imgsparrow.co/image/CN&lt;/a&gt; &lt;a href=&quot;\nhttp://imgsparrow.co/image/Ct&quot; rel=&quot;nofollow&quot; target=&quot;_NEW&quot;&gt;\nhttp://imgsparrow.co/image/Ct&lt;/a&gt; &lt;a href=&quot;\nhttp://imgsparrow.co/image/CE&quot; rel=&quot;nofollow&quot; target=&quot;_NEW&quot;&gt;\nhttp://imgsparrow.co/image/CE&lt;/a&gt; &lt;a href=&quot;\nhttp://imgsparrow.co/image/CJ&quot; rel=&quot;nofollow&quot; target=&quot;_NEW&quot;&gt;\nhttp://imgsparrow.co/image/CJ&lt;/a&gt; &lt;a href=&quot;\nhttp://imgsparrow.co/image/CU&quot; rel=&quot;nofollow&quot; target=&quot;_NEW&quot;&gt;\nhttp://imgsparrow.co/image/CU&lt;/a&gt; &lt;a href=&quot;\nhttp://imgsparrow.co/image/Cu&quot; rel=&quot;nofollow&quot; target=&quot;_NEW&quot;&gt;\nhttp://imgsparrow.co/image/Cu&lt;/a&gt; &lt;a href=&quot;\nhttp://imgsparrow.co/image/Cw&quot; rel=&quot;nofollow&quot; target=&quot;_NEW&quot;&gt;\nhttp://imgsparrow.co/image/Cw&lt;/a&gt;\n &lt;a href=&quot;\nhttp://imgsparrow.co/image/Vm&quot; rel=&quot;nofollow&quot; target=&quot;_NEW&quot;&gt;\nhttp://imgsparrow.co/image/Vm&lt;/a&gt;","torrent":{"xt":"urn:btih:01928d4f4beac9902765eae56bef50e8a7d2a580","amp;dn":"Kuruvi+%282008%29+720p+BluRay+Dual+Audio+%5BHindi%2BTamil%5D+x264+AC3+5.1.","amp;tr":["udp%3A%2F%2Ftracker.openbittorrent.com%3A80","udp%3A%2F%2Fopen.demonii.com%3A1337","udp%3A%2F%2Ftracker.coppersurfer.tk%3A6969","udp%3A%2F%2Fexodus.desync.com%3A6969"],"infoHash":"01928d4f4beac9902765eae56bef50e8a7d2a580","infoHashBuffer":{"type":"Buffer","data":[1,146,141,79,75,234,201,144,39,101,234,229,107,239,80,232,167,210,165,128]},"announce":[],"urlList":[]}}